<svg width="32" height="32" viewBox="0 0 32 32" fill="none" xmlns="http://www.w3.org/2000/svg">
<path d="M22.9707 16.643H10.0801C10.1973 18.2779 10.8125 19.6037 11.9258 20.6206C13.0391 21.6174 14.4453 22.1159 16.1445 22.1159C17.1016 22.1159 17.9805 21.9464 18.7813 21.6075C19.582 21.2486 20.2754 20.7302 20.8613 20.0523L22.0332 21.428C21.3496 22.2654 20.4902 22.9034 19.4551 23.3421C18.4395 23.7807 17.3164 24 16.0859 24C14.5039 24 13.0977 23.6611 11.8672 22.9832C10.6562 22.2854 9.70898 21.3283 9.02539 20.1121C8.3418 18.896 8 17.5202 8 15.985C8 14.4498 8.32227 13.0741 8.9668 11.8579C9.63086 10.6417 10.5293 9.6947 11.6621 9.01682C12.8145 8.33894 14.1035 8 15.5293 8C16.9551 8 18.2344 8.33894 19.3672 9.01682C20.5 9.6947 21.3887 10.6417 22.0332 11.8579C22.6777 13.0542 23 14.4299 23 15.985L22.9707 16.643ZM15.5293 9.8243C14.0449 9.8243 12.7949 10.3128 11.7793 11.2897C10.7832 12.2467 10.2168 13.5028 10.0801 15.0579H21.0078C20.8711 13.5028 20.2949 12.2467 19.2793 11.2897C18.2832 10.3128 17.0332 9.8243 15.5293 9.8243Z" fill="white"/>
</svg>
