<svg width="32" height="32" viewBox="0 0 32 32" fill="none" xmlns="http://www.w3.org/2000/svg">
<g clip-path="url(#clip0_1249_3847)">
<path d="M32.0002 16.3663C31.9621 17.7729 31.8854 19.1842 31.5711 20.569C31.3826 21.401 31.0345 22.1847 30.7583 22.9902C30.1998 24.6193 29.6577 26.2556 28.8473 27.7848C28.5494 28.3466 28.217 28.886 27.8278 29.3891C27.6894 29.5687 27.528 29.6618 27.2826 29.6806C26.8433 29.7144 26.445 29.8952 26.092 30.1686C25.469 30.6517 24.832 31.1173 24.1563 31.5255C23.2957 32.0455 22.3982 32.1514 21.456 31.7384C20.8257 31.462 20.1893 31.1984 19.5499 30.9432C18.783 30.6366 18.447 30.1813 18.5582 29.1176C18.6077 28.6435 18.7902 28.2051 18.9437 27.7607C19.6738 25.6515 20.5701 23.6094 21.4742 21.5716C22.3819 19.5247 23.3187 17.4911 24.3116 15.4841C24.832 14.4325 25.2617 14.2789 26.3271 14.7663C27.1781 15.1557 27.9704 15.6498 28.7651 16.1396C29.1869 16.3996 29.4438 16.786 29.607 17.2407C29.7671 17.687 29.8469 18.1508 29.8832 18.6231C29.8904 18.7144 29.8324 18.8577 29.9581 18.8825C30.0929 18.9085 30.1134 18.7525 30.1569 18.6612C30.4289 18.0921 30.4597 17.4874 30.3763 16.8779C30.1303 15.0862 29.6922 13.3392 29.1374 11.6195C28.8564 10.7487 28.3801 9.97528 27.9498 9.17829C27.8912 9.06884 27.7939 9.03316 27.6894 9.00232C26.9859 8.7937 26.4093 8.39763 25.8908 7.87759C24.8972 6.88225 23.833 5.95646 22.6575 5.18608C21.308 4.3014 19.7699 3.89747 18.1895 3.66284C16.426 3.40101 14.6679 3.45846 12.9225 3.82067C11.4171 4.1333 9.97812 4.62492 8.75612 5.58639C7.76739 6.36463 6.77927 7.15014 5.90658 8.06504C5.47689 8.51554 4.94747 8.8064 4.35641 8.98297C4.17692 9.03679 4.07478 9.1408 3.97688 9.29621C2.94645 10.9374 2.45088 12.7726 2.03388 14.6351C1.82235 15.5808 1.60841 16.5266 1.58423 17.5038C1.57396 17.9343 1.70329 18.325 1.86284 18.712C1.89548 18.7906 1.92449 18.9091 2.03931 18.8843C2.14266 18.8619 2.10519 18.7494 2.10942 18.6733C2.14024 18.1726 2.23331 17.684 2.40072 17.2117C2.55604 16.7739 2.80866 16.4141 3.21418 16.1577C4.05726 15.6238 4.90879 15.108 5.82197 14.6998C6.69768 14.3085 7.20111 14.4936 7.62839 15.3625C8.39653 16.9245 9.13626 18.5003 9.85302 20.0864C10.9946 22.6141 12.1339 25.1435 13.0537 27.7631C13.2513 28.326 13.4677 28.886 13.458 29.5004C13.4483 30.1401 13.1999 30.6088 12.5914 30.8785C11.8045 31.228 11.0158 31.5775 10.2029 31.8587C9.27284 32.181 8.41466 31.921 7.62537 31.3967C7.03673 31.0061 6.45534 30.6039 5.90114 30.1631C5.52282 29.8626 5.08466 29.6933 4.60118 29.6703C4.40899 29.6612 4.30988 29.5451 4.20714 29.4181C3.47043 28.5062 2.94826 27.471 2.495 26.4001C1.72747 24.5866 1.13882 22.7078 0.495187 20.8496C0.231083 20.0876 0.185757 19.2683 0.109608 18.4658C0.0382941 17.7178 0.00384589 16.9656 0.000219761 16.2133C-0.0203283 11.9992 1.40051 8.30692 4.08566 5.09779C5.29316 3.65438 6.81614 2.5889 8.50047 1.75684C10.5347 0.751224 12.6989 0.227556 14.9489 0.0437278C16.8666 -0.112889 18.7437 0.164667 20.5912 0.661124C22.7645 1.24526 24.7316 2.24301 26.471 3.67796C27.6881 4.68176 28.6454 5.90506 29.4643 7.24386C30.5999 9.1015 31.4225 11.0801 31.7597 13.2443C31.9204 14.2759 31.9754 15.316 32.0008 16.3663H32.0002Z" fill="black"/>
<path d="M22.9727 14.5626H10.9414C11.0508 15.9931 11.625 17.1533 12.6641 18.043C13.7031 18.9153 15.0156 19.3514 16.6016 19.3514C17.4948 19.3514 18.3151 19.2031 19.0625 18.9065C19.8099 18.5925 20.457 18.1389 21.0039 17.5458L22.0977 18.7495C21.4596 19.4822 20.6576 20.0405 19.6914 20.4243C18.7435 20.8081 17.6953 21 16.5469 21C15.0703 21 13.7578 20.7034 12.6094 20.1103C11.4792 19.4997 10.5951 18.6623 9.95703 17.5981C9.31901 16.534 9 15.3302 9 13.9869C9 12.6436 9.30078 11.4399 9.90234 10.3757C10.5221 9.31153 11.3607 8.48287 12.418 7.88972C13.4935 7.29657 14.6966 7 16.0273 7C17.3581 7 18.5521 7.29657 19.6094 7.88972C20.6667 8.48287 21.4961 9.31153 22.0977 10.3757C22.6992 11.4224 23 12.6262 23 13.9869L22.9727 14.5626ZM16.0273 8.59626C14.6419 8.59626 13.4753 9.02368 12.5273 9.8785C11.5977 10.7159 11.069 11.815 10.9414 13.1757H21.1406C21.013 11.815 20.4753 10.7159 19.5273 9.8785C18.5977 9.02368 17.431 8.59626 16.0273 8.59626Z" fill="white"/>
</g>
<defs>
<clipPath id="clip0_1249_3847">
<rect width="32" height="32" fill="white"/>
</clipPath>
</defs>
</svg>
