<svg width="16" height="16" viewBox="0 0 16 16" fill="none" xmlns="http://www.w3.org/2000/svg">
<path d="M8 16L6.84 14.8665C5.49333 13.5441 4.38 12.4033 3.5 11.4441C2.62 10.485 1.92 9.62398 1.4 8.86104C0.88 8.09809 0.516667 7.39691 0.31 6.75749C0.103333 6.11807 0 5.46412 0 4.79564C0 3.42961 0.42 2.28883 1.26 1.3733C2.1 0.457766 3.14667 0 4.4 0C5.09333 0 5.75333 0.159855 6.38 0.479564C7.00667 0.799273 7.54667 1.24977 8 1.83106C8.45333 1.24977 8.99333 0.799273 9.62 0.479564C10.2467 0.159855 10.9067 0 11.6 0C12.8533 0 13.9 0.457766 14.74 1.3733C15.58 2.28883 16 3.42961 16 4.79564C16 5.46412 15.8967 6.11807 15.69 6.75749C15.4833 7.39691 15.12 8.09809 14.6 8.86104C14.08 9.62398 13.38 10.485 12.5 11.4441C11.62 12.4033 10.5067 13.5441 9.16 14.8665L8 16ZM8 13.6458C9.28 12.396 10.3333 11.3243 11.16 10.4305C11.9867 9.53679 12.64 8.75931 13.12 8.09809C13.6 7.43688 13.9333 6.84832 14.12 6.33243C14.3067 5.81653 14.4 5.30427 14.4 4.79564C14.4 3.92371 14.1333 3.19709 13.6 2.6158C13.0667 2.03451 12.4 1.74387 11.6 1.74387C10.9733 1.74387 10.3933 1.93642 9.86 2.32153C9.32667 2.70663 8.96 3.19709 8.76 3.79292H7.24C7.04 3.19709 6.67333 2.70663 6.14 2.32153C5.60667 1.93642 5.02667 1.74387 4.4 1.74387C3.6 1.74387 2.93333 2.03451 2.4 2.6158C1.86667 3.19709 1.6 3.92371 1.6 4.79564C1.6 5.30427 1.69333 5.81653 1.88 6.33243C2.06667 6.84832 2.4 7.43688 2.88 8.09809C3.36 8.75931 4.01333 9.53679 4.84 10.4305C5.66667 11.3243 6.72 12.396 8 13.6458Z" fill="#171717"/>
</svg>
